<mxfile host="app.diagrams.net" agent="Mozilla/5.0 (Windows NT 10.0; Win64; x64) AppleWebKit/537.36 (KHTML, like Gecko) Chrome/138.0.0.0 Safari/537.36" version="28.1.2">
  <diagram name="Page-1" id="a7Cu_VhbRaBFU6UhPP2i">
    <mxGraphModel dx="1708" dy="752" grid="1" gridSize="10" guides="1" tooltips="1" connect="1" arrows="1" fold="1" page="1" pageScale="1" pageWidth="850" pageHeight="1100" math="0" shadow="0">
      <root>
        <mxCell id="0" />
        <mxCell id="1" parent="0" />
        <mxCell id="qTHubU8TxOcXZa79jZ6r-1" value="" style="swimlane;startSize=0;" vertex="1" parent="1">
          <mxGeometry x="644.5" y="890" width="440" height="306" as="geometry">
            <mxRectangle x="-1070" y="-500" width="65" height="90" as="alternateBounds" />
          </mxGeometry>
        </mxCell>
        <mxCell id="qTHubU8TxOcXZa79jZ6r-2" value="&lt;b&gt;&lt;sub&gt;IDLE&lt;/sub&gt;&lt;/b&gt;" style="ellipse;whiteSpace=wrap;html=1;aspect=fixed;" vertex="1" parent="qTHubU8TxOcXZa79jZ6r-1">
          <mxGeometry x="138" y="60" width="60" height="60" as="geometry" />
        </mxCell>
        <mxCell id="qTHubU8TxOcXZa79jZ6r-3" value="&lt;b&gt;&lt;sub&gt;DATA&lt;/sub&gt;&lt;/b&gt;" style="ellipse;whiteSpace=wrap;html=1;aspect=fixed;" vertex="1" parent="qTHubU8TxOcXZa79jZ6r-1">
          <mxGeometry x="199" y="216" width="60" height="60" as="geometry" />
        </mxCell>
        <mxCell id="qTHubU8TxOcXZa79jZ6r-4" value="&lt;b&gt;&lt;sub&gt;STOP&lt;/sub&gt;&lt;/b&gt;" style="ellipse;whiteSpace=wrap;html=1;aspect=fixed;" vertex="1" parent="qTHubU8TxOcXZa79jZ6r-1">
          <mxGeometry x="60" y="180" width="60" height="60" as="geometry" />
        </mxCell>
        <mxCell id="qTHubU8TxOcXZa79jZ6r-5" value="" style="endArrow=classic;html=1;rounded=0;entryX=0.086;entryY=0.186;entryDx=0;entryDy=0;entryPerimeter=0;flowAnimation=0;exitX=0.972;exitY=0.612;exitDx=0;exitDy=0;exitPerimeter=0;" edge="1" parent="qTHubU8TxOcXZa79jZ6r-1" source="qTHubU8TxOcXZa79jZ6r-2">
          <mxGeometry width="50" height="50" relative="1" as="geometry">
            <mxPoint x="259" y="14.5" as="sourcePoint" />
            <mxPoint x="273.1600000000001" y="131.66000000000008" as="targetPoint" />
          </mxGeometry>
        </mxCell>
        <mxCell id="qTHubU8TxOcXZa79jZ6r-6" value="" style="endArrow=classic;html=1;rounded=0;entryX=0;entryY=1;entryDx=0;entryDy=0;exitX=1;exitY=0;exitDx=0;exitDy=0;flowAnimation=0;" edge="1" parent="qTHubU8TxOcXZa79jZ6r-1" source="qTHubU8TxOcXZa79jZ6r-4" target="qTHubU8TxOcXZa79jZ6r-2">
          <mxGeometry width="50" height="50" relative="1" as="geometry">
            <mxPoint x="90" y="160" as="sourcePoint" />
            <mxPoint x="140" y="110" as="targetPoint" />
          </mxGeometry>
        </mxCell>
        <mxCell id="qTHubU8TxOcXZa79jZ6r-7" value="" style="endArrow=classic;html=1;rounded=0;entryX=0.995;entryY=0.586;entryDx=0;entryDy=0;entryPerimeter=0;exitX=-0.019;exitY=0.586;exitDx=0;exitDy=0;exitPerimeter=0;flowAnimation=0;" edge="1" parent="qTHubU8TxOcXZa79jZ6r-1" source="qTHubU8TxOcXZa79jZ6r-3" target="qTHubU8TxOcXZa79jZ6r-4">
          <mxGeometry width="50" height="50" relative="1" as="geometry">
            <mxPoint x="138" y="235" as="sourcePoint" />
            <mxPoint x="188" y="185" as="targetPoint" />
          </mxGeometry>
        </mxCell>
        <mxCell id="qTHubU8TxOcXZa79jZ6r-8" value="" style="curved=1;endArrow=classic;html=1;rounded=0;flowAnimation=0;" edge="1" parent="qTHubU8TxOcXZa79jZ6r-1">
          <mxGeometry width="50" height="50" relative="1" as="geometry">
            <mxPoint x="168" y="60" as="sourcePoint" />
            <mxPoint x="170" y="60" as="targetPoint" />
            <Array as="points">
              <mxPoint x="218" y="60" />
              <mxPoint x="168" y="10" />
            </Array>
          </mxGeometry>
        </mxCell>
        <mxCell id="qTHubU8TxOcXZa79jZ6r-9" value="" style="curved=1;endArrow=classic;html=1;rounded=0;flowAnimation=0;exitX=0;exitY=0.5;exitDx=0;exitDy=0;" edge="1" parent="qTHubU8TxOcXZa79jZ6r-1" source="qTHubU8TxOcXZa79jZ6r-4">
          <mxGeometry width="50" height="50" relative="1" as="geometry">
            <mxPoint x="58" y="212" as="sourcePoint" />
            <mxPoint x="58" y="210" as="targetPoint" />
            <Array as="points">
              <mxPoint x="8" y="212" />
              <mxPoint x="58" y="162" />
            </Array>
          </mxGeometry>
        </mxCell>
        <mxCell id="qTHubU8TxOcXZa79jZ6r-11" value="&lt;sub&gt;&lt;font style=&quot;font-size: 7px;&quot;&gt;start_sample_tick = 1&lt;/font&gt;&lt;/sub&gt;" style="text;html=1;align=center;verticalAlign=middle;resizable=0;points=[];autosize=1;strokeColor=none;fillColor=none;rotation=-30;" vertex="1" parent="qTHubU8TxOcXZa79jZ6r-1">
          <mxGeometry x="220" y="160" width="90" height="30" as="geometry" />
        </mxCell>
        <mxCell id="qTHubU8TxOcXZa79jZ6r-12" value="&lt;font style=&quot;font-size: 7px;&quot;&gt;rx = 1&lt;/font&gt;" style="text;html=1;align=center;verticalAlign=middle;resizable=0;points=[];autosize=1;strokeColor=none;fillColor=none;" vertex="1" parent="qTHubU8TxOcXZa79jZ6r-1">
          <mxGeometry x="195" y="5.5" width="40" height="30" as="geometry" />
        </mxCell>
        <mxCell id="qTHubU8TxOcXZa79jZ6r-15" value="&lt;font style=&quot;font-size: 7px;&quot;&gt;bit_count = 8&lt;/font&gt;" style="text;html=1;align=center;verticalAlign=middle;resizable=0;points=[];autosize=1;strokeColor=none;fillColor=none;rotation=30;" vertex="1" parent="qTHubU8TxOcXZa79jZ6r-1">
          <mxGeometry x="120" y="220" width="60" height="30" as="geometry" />
        </mxCell>
        <mxCell id="qTHubU8TxOcXZa79jZ6r-18" value="&lt;sub&gt;&lt;font style=&quot;font-size: 7px;&quot;&gt;rx = 1&lt;/font&gt;&lt;/sub&gt;" style="text;html=1;align=center;verticalAlign=middle;resizable=0;points=[];autosize=1;strokeColor=none;fillColor=none;rotation=-50;" vertex="1" parent="qTHubU8TxOcXZa79jZ6r-1">
          <mxGeometry x="92" y="130" width="40" height="30" as="geometry" />
        </mxCell>
        <mxCell id="qTHubU8TxOcXZa79jZ6r-21" value="" style="curved=1;endArrow=classic;html=1;rounded=0;flowAnimation=0;" edge="1" parent="qTHubU8TxOcXZa79jZ6r-1">
          <mxGeometry width="50" height="50" relative="1" as="geometry">
            <mxPoint x="259" y="266" as="sourcePoint" />
            <mxPoint x="261" y="266" as="targetPoint" />
            <Array as="points">
              <mxPoint x="309" y="266" />
              <mxPoint x="259" y="216" />
            </Array>
          </mxGeometry>
        </mxCell>
        <mxCell id="qTHubU8TxOcXZa79jZ6r-22" value="&lt;font&gt;Controller&lt;/font&gt;" style="text;html=1;align=center;verticalAlign=middle;resizable=0;points=[];autosize=1;strokeColor=none;fillColor=none;" vertex="1" parent="qTHubU8TxOcXZa79jZ6r-1">
          <mxGeometry y="14.5" width="80" height="30" as="geometry" />
        </mxCell>
        <mxCell id="qTHubU8TxOcXZa79jZ6r-135" value="&lt;b&gt;&lt;sub&gt;START&lt;/sub&gt;&lt;/b&gt;" style="ellipse;whiteSpace=wrap;html=1;aspect=fixed;" vertex="1" parent="qTHubU8TxOcXZa79jZ6r-1">
          <mxGeometry x="276" y="100" width="60" height="60" as="geometry" />
        </mxCell>
        <mxCell id="qTHubU8TxOcXZa79jZ6r-137" value="" style="curved=1;endArrow=classic;html=1;rounded=0;flowAnimation=0;" edge="1" parent="qTHubU8TxOcXZa79jZ6r-1">
          <mxGeometry width="50" height="50" relative="1" as="geometry">
            <mxPoint x="337" y="130" as="sourcePoint" />
            <mxPoint x="339" y="130" as="targetPoint" />
            <Array as="points">
              <mxPoint x="387" y="130" />
              <mxPoint x="337" y="80" />
            </Array>
          </mxGeometry>
        </mxCell>
        <mxCell id="qTHubU8TxOcXZa79jZ6r-139" value="" style="endArrow=classic;html=1;rounded=0;entryX=0.086;entryY=0.186;entryDx=0;entryDy=0;entryPerimeter=0;flowAnimation=0;exitX=0.136;exitY=0.014;exitDx=0;exitDy=0;exitPerimeter=0;" edge="1" parent="qTHubU8TxOcXZa79jZ6r-1">
          <mxGeometry width="50" height="50" relative="1" as="geometry">
            <mxPoint x="308.1600000000001" y="160.42000000000007" as="sourcePoint" />
            <mxPoint x="237.16000000000008" y="216" as="targetPoint" />
          </mxGeometry>
        </mxCell>
        <mxCell id="qTHubU8TxOcXZa79jZ6r-140" value="&lt;font style=&quot;font-size: 7px;&quot;&gt;rx = 0&lt;/font&gt;" style="text;html=1;align=center;verticalAlign=middle;resizable=0;points=[];autosize=1;strokeColor=none;fillColor=none;" vertex="1" parent="qTHubU8TxOcXZa79jZ6r-1">
          <mxGeometry x="219" y="90" width="40" height="30" as="geometry" />
        </mxCell>
        <mxCell id="qTHubU8TxOcXZa79jZ6r-142" value="&lt;font style=&quot;font-size: 7px;&quot;&gt;rx = 0&lt;/font&gt;" style="text;html=1;align=center;verticalAlign=middle;resizable=0;points=[];autosize=1;strokeColor=none;fillColor=none;rotation=-40;" vertex="1" parent="qTHubU8TxOcXZa79jZ6r-1">
          <mxGeometry x="270" y="170" width="40" height="30" as="geometry" />
        </mxCell>
        <mxCell id="qTHubU8TxOcXZa79jZ6r-143" value="&lt;sub&gt;&lt;font style=&quot;font-size: 7px;&quot;&gt;start_sample_tick = 0&lt;/font&gt;&lt;/sub&gt;" style="text;html=1;align=center;verticalAlign=middle;resizable=0;points=[];autosize=1;strokeColor=none;fillColor=none;rotation=0;" vertex="1" parent="qTHubU8TxOcXZa79jZ6r-1">
          <mxGeometry x="310.00114317029966" y="70.00038105676663" width="90" height="30" as="geometry" />
        </mxCell>
        <mxCell id="qTHubU8TxOcXZa79jZ6r-144" value="&lt;font style=&quot;font-size: 7px;&quot;&gt;bit_count +=1&lt;/font&gt;" style="text;html=1;align=center;verticalAlign=middle;resizable=0;points=[];autosize=1;strokeColor=none;fillColor=none;rotation=30;" vertex="1" parent="qTHubU8TxOcXZa79jZ6r-1">
          <mxGeometry x="255.00076211353314" y="216.00038105676663" width="70" height="30" as="geometry" />
        </mxCell>
        <mxCell id="qTHubU8TxOcXZa79jZ6r-145" value="&lt;sub&gt;&lt;font style=&quot;font-size: 7px;&quot;&gt;rx = 0&lt;/font&gt;&lt;/sub&gt;" style="text;html=1;align=center;verticalAlign=middle;resizable=0;points=[];autosize=1;strokeColor=none;fillColor=none;rotation=-50;" vertex="1" parent="qTHubU8TxOcXZa79jZ6r-1">
          <mxGeometry x="-0.0035811594846109074" y="170.0027030076776" width="40" height="30" as="geometry" />
        </mxCell>
        <mxCell id="qTHubU8TxOcXZa79jZ6r-57" value="&lt;font style=&quot;font-size: 15px;&quot;&gt;Controller&lt;/font&gt;" style="ellipse;whiteSpace=wrap;html=1;" vertex="1" parent="1">
          <mxGeometry x="624.5" y="394" width="120" height="160" as="geometry" />
        </mxCell>
        <mxCell id="qTHubU8TxOcXZa79jZ6r-58" value="&lt;font style=&quot;font-size: 15px;&quot;&gt;Datapath&lt;/font&gt;" style="rounded=1;whiteSpace=wrap;html=1;" vertex="1" parent="1">
          <mxGeometry x="934.5" y="389" width="110" height="200" as="geometry" />
        </mxCell>
        <mxCell id="qTHubU8TxOcXZa79jZ6r-59" value="FIFO&lt;div&gt;&lt;br/&gt;&lt;/div&gt;" style="rounded=1;whiteSpace=wrap;html=1;" vertex="1" parent="1">
          <mxGeometry x="1104.5" y="664" width="70" height="110" as="geometry" />
        </mxCell>
        <mxCell id="qTHubU8TxOcXZa79jZ6r-60" value="" style="endArrow=classic;html=1;rounded=0;strokeWidth=2;" edge="1" parent="1">
          <mxGeometry width="50" height="50" relative="1" as="geometry">
            <mxPoint x="1044.5" y="551" as="sourcePoint" />
            <mxPoint x="1104.5" y="757" as="targetPoint" />
            <Array as="points">
              <mxPoint x="1074.5" y="551" />
              <mxPoint x="1074.5" y="757" />
            </Array>
          </mxGeometry>
        </mxCell>
        <mxCell id="qTHubU8TxOcXZa79jZ6r-61" value="" style="endArrow=classic;html=1;rounded=0;exitX=0.979;exitY=0.347;exitDx=0;exitDy=0;exitPerimeter=0;" edge="1" parent="1" source="qTHubU8TxOcXZa79jZ6r-57">
          <mxGeometry width="50" height="50" relative="1" as="geometry">
            <mxPoint x="884.5" y="499" as="sourcePoint" />
            <mxPoint x="934.5" y="449" as="targetPoint" />
          </mxGeometry>
        </mxCell>
        <mxCell id="qTHubU8TxOcXZa79jZ6r-62" value="" style="endArrow=classic;html=1;rounded=0;exitX=0.979;exitY=0.347;exitDx=0;exitDy=0;exitPerimeter=0;" edge="1" parent="1" target="qTHubU8TxOcXZa79jZ6r-64">
          <mxGeometry width="50" height="50" relative="1" as="geometry">
            <mxPoint x="742.5" y="494" as="sourcePoint" />
            <mxPoint x="900" y="493" as="targetPoint" />
            <Array as="points">
              <mxPoint x="768" y="494" />
            </Array>
          </mxGeometry>
        </mxCell>
        <mxCell id="qTHubU8TxOcXZa79jZ6r-64" value="write" style="text;html=1;align=center;verticalAlign=middle;resizable=0;points=[];autosize=1;strokeColor=none;fillColor=none;" vertex="1" parent="1">
          <mxGeometry x="742.5" y="469" width="50" height="30" as="geometry" />
        </mxCell>
        <mxCell id="qTHubU8TxOcXZa79jZ6r-66" value="" style="endArrow=classic;html=1;rounded=0;" edge="1" parent="1">
          <mxGeometry width="50" height="50" relative="1" as="geometry">
            <mxPoint x="767.5" y="494" as="sourcePoint" />
            <mxPoint x="1104.5" y="679" as="targetPoint" />
            <Array as="points">
              <mxPoint x="767.5" y="679" />
            </Array>
          </mxGeometry>
        </mxCell>
        <mxCell id="qTHubU8TxOcXZa79jZ6r-67" value="" style="endArrow=classic;html=1;rounded=0;" edge="1" parent="1">
          <mxGeometry width="50" height="50" relative="1" as="geometry">
            <mxPoint x="426.5" y="492" as="sourcePoint" />
            <mxPoint x="626.5" y="492" as="targetPoint" />
          </mxGeometry>
        </mxCell>
        <mxCell id="qTHubU8TxOcXZa79jZ6r-68" value="" style="endArrow=classic;html=1;rounded=0;" edge="1" parent="1">
          <mxGeometry width="50" height="50" relative="1" as="geometry">
            <mxPoint x="426.5" y="522" as="sourcePoint" />
            <mxPoint x="635.5" y="522" as="targetPoint" />
          </mxGeometry>
        </mxCell>
        <mxCell id="qTHubU8TxOcXZa79jZ6r-69" value="clock" style="text;html=1;align=center;verticalAlign=middle;resizable=0;points=[];autosize=1;strokeColor=none;fillColor=none;" vertex="1" parent="1">
          <mxGeometry x="556.5" y="468" width="50" height="30" as="geometry" />
        </mxCell>
        <mxCell id="qTHubU8TxOcXZa79jZ6r-70" value="reset" style="text;html=1;align=center;verticalAlign=middle;resizable=0;points=[];autosize=1;strokeColor=none;fillColor=none;" vertex="1" parent="1">
          <mxGeometry x="559.5" y="497" width="50" height="30" as="geometry" />
        </mxCell>
        <mxCell id="qTHubU8TxOcXZa79jZ6r-71" value="clk" style="text;html=1;align=center;verticalAlign=middle;resizable=0;points=[];autosize=1;strokeColor=none;fillColor=none;" vertex="1" parent="1">
          <mxGeometry x="416.5" y="467" width="40" height="30" as="geometry" />
        </mxCell>
        <mxCell id="qTHubU8TxOcXZa79jZ6r-72" value="rst" style="text;html=1;align=center;verticalAlign=middle;resizable=0;points=[];autosize=1;strokeColor=none;fillColor=none;" vertex="1" parent="1">
          <mxGeometry x="416.5" y="497" width="40" height="30" as="geometry" />
        </mxCell>
        <mxCell id="qTHubU8TxOcXZa79jZ6r-77" value="" style="endArrow=classic;html=1;rounded=0;" edge="1" parent="1">
          <mxGeometry width="50" height="50" relative="1" as="geometry">
            <mxPoint x="554.5" y="492" as="sourcePoint" />
            <mxPoint x="934.5" y="564" as="targetPoint" />
            <Array as="points">
              <mxPoint x="554.5" y="564" />
            </Array>
          </mxGeometry>
        </mxCell>
        <mxCell id="qTHubU8TxOcXZa79jZ6r-78" value="" style="endArrow=classic;html=1;rounded=0;" edge="1" parent="1">
          <mxGeometry width="50" height="50" relative="1" as="geometry">
            <mxPoint x="874.5" y="539" as="sourcePoint" />
            <mxPoint x="934.5" y="539" as="targetPoint" />
          </mxGeometry>
        </mxCell>
        <mxCell id="qTHubU8TxOcXZa79jZ6r-79" value="rst" style="text;html=1;align=center;verticalAlign=middle;resizable=0;points=[];autosize=1;strokeColor=none;fillColor=none;" vertex="1" parent="1">
          <mxGeometry x="844.5" y="524" width="40" height="30" as="geometry" />
        </mxCell>
        <mxCell id="qTHubU8TxOcXZa79jZ6r-82" value="rx_in" style="text;html=1;align=center;verticalAlign=middle;resizable=0;points=[];autosize=1;strokeColor=none;fillColor=none;" vertex="1" parent="1">
          <mxGeometry x="417.5" y="348" width="50" height="30" as="geometry" />
        </mxCell>
        <mxCell id="qTHubU8TxOcXZa79jZ6r-87" value="" style="endArrow=classic;html=1;rounded=0;" edge="1" parent="1">
          <mxGeometry width="50" height="50" relative="1" as="geometry">
            <mxPoint x="554.5" y="564" as="sourcePoint" />
            <mxPoint x="1104.5" y="734" as="targetPoint" />
            <Array as="points">
              <mxPoint x="554.5" y="734" />
            </Array>
          </mxGeometry>
        </mxCell>
        <mxCell id="qTHubU8TxOcXZa79jZ6r-88" value="" style="endArrow=classic;html=1;rounded=0;" edge="1" parent="1">
          <mxGeometry width="50" height="50" relative="1" as="geometry">
            <mxPoint x="1044.5" y="717" as="sourcePoint" />
            <mxPoint x="1104.5" y="717" as="targetPoint" />
          </mxGeometry>
        </mxCell>
        <mxCell id="qTHubU8TxOcXZa79jZ6r-89" value="rst" style="text;html=1;align=center;verticalAlign=middle;resizable=0;points=[];autosize=1;strokeColor=none;fillColor=none;" vertex="1" parent="1">
          <mxGeometry x="1014.5" y="702" width="40" height="30" as="geometry" />
        </mxCell>
        <mxCell id="qTHubU8TxOcXZa79jZ6r-90" value="data_in" style="text;html=1;align=center;verticalAlign=middle;resizable=0;points=[];autosize=1;strokeColor=none;fillColor=none;" vertex="1" parent="1">
          <mxGeometry x="1014.5" y="739" width="60" height="30" as="geometry" />
        </mxCell>
        <mxCell id="qTHubU8TxOcXZa79jZ6r-97" value="" style="endArrow=classic;html=1;rounded=0;strokeWidth=2;" edge="1" parent="1">
          <mxGeometry width="50" height="50" relative="1" as="geometry">
            <mxPoint x="1174.5" y="694" as="sourcePoint" />
            <mxPoint x="1234.5" y="694" as="targetPoint" />
          </mxGeometry>
        </mxCell>
        <mxCell id="qTHubU8TxOcXZa79jZ6r-98" value="rd_data" style="text;html=1;align=center;verticalAlign=middle;resizable=0;points=[];autosize=1;strokeColor=none;fillColor=none;" vertex="1" parent="1">
          <mxGeometry x="1174.5" y="662" width="60" height="30" as="geometry" />
        </mxCell>
        <mxCell id="qTHubU8TxOcXZa79jZ6r-99" value="" style="endArrow=classic;html=1;rounded=0;" edge="1" parent="1">
          <mxGeometry width="50" height="50" relative="1" as="geometry">
            <mxPoint x="1174.5" y="724" as="sourcePoint" />
            <mxPoint x="1344.5" y="724" as="targetPoint" />
          </mxGeometry>
        </mxCell>
        <mxCell id="qTHubU8TxOcXZa79jZ6r-100" value="" style="endArrow=classic;html=1;rounded=0;" edge="1" parent="1">
          <mxGeometry width="50" height="50" relative="1" as="geometry">
            <mxPoint x="1174.5" y="753.66" as="sourcePoint" />
            <mxPoint x="1344.5" y="754" as="targetPoint" />
          </mxGeometry>
        </mxCell>
        <mxCell id="qTHubU8TxOcXZa79jZ6r-101" value="full" style="text;html=1;align=center;verticalAlign=middle;resizable=0;points=[];autosize=1;strokeColor=none;fillColor=none;" vertex="1" parent="1">
          <mxGeometry x="1174.5" y="699" width="40" height="30" as="geometry" />
        </mxCell>
        <mxCell id="qTHubU8TxOcXZa79jZ6r-102" value="empty" style="text;html=1;align=center;verticalAlign=middle;resizable=0;points=[];autosize=1;strokeColor=none;fillColor=none;" vertex="1" parent="1">
          <mxGeometry x="1171.5" y="729" width="60" height="30" as="geometry" />
        </mxCell>
        <mxCell id="qTHubU8TxOcXZa79jZ6r-107" value="" style="swimlane;startSize=0;" vertex="1" parent="1">
          <mxGeometry x="360" y="160" width="1047" height="666" as="geometry" />
        </mxCell>
        <mxCell id="qTHubU8TxOcXZa79jZ6r-108" value="&lt;b&gt;UART&lt;br&gt;Receiver&lt;/b&gt;" style="text;html=1;align=center;verticalAlign=middle;resizable=0;points=[];autosize=1;strokeColor=none;fillColor=none;" vertex="1" parent="qTHubU8TxOcXZa79jZ6r-107">
          <mxGeometry x="916" y="46" width="70" height="40" as="geometry" />
        </mxCell>
        <mxCell id="qTHubU8TxOcXZa79jZ6r-109" value="&lt;span style=&quot;font-size: 15px;&quot;&gt;Baud_Rate&lt;/span&gt;" style="rounded=1;whiteSpace=wrap;html=1;" vertex="1" parent="qTHubU8TxOcXZa79jZ6r-107">
          <mxGeometry x="280" y="20" width="100" height="110" as="geometry" />
        </mxCell>
        <mxCell id="qTHubU8TxOcXZa79jZ6r-110" value="rst" style="text;html=1;align=center;verticalAlign=middle;resizable=0;points=[];autosize=1;strokeColor=none;fillColor=none;" vertex="1" parent="qTHubU8TxOcXZa79jZ6r-107">
          <mxGeometry x="220" y="70" width="40" height="30" as="geometry" />
        </mxCell>
        <mxCell id="qTHubU8TxOcXZa79jZ6r-111" value="clk" style="text;html=1;align=center;verticalAlign=middle;resizable=0;points=[];autosize=1;strokeColor=none;fillColor=none;" vertex="1" parent="qTHubU8TxOcXZa79jZ6r-107">
          <mxGeometry x="210" y="20" width="40" height="30" as="geometry" />
        </mxCell>
        <mxCell id="qTHubU8TxOcXZa79jZ6r-112" value="" style="edgeStyle=none;orthogonalLoop=1;jettySize=auto;html=1;rounded=0;exitX=0.996;exitY=0.833;exitDx=0;exitDy=0;exitPerimeter=0;" edge="1" parent="qTHubU8TxOcXZa79jZ6r-107" source="qTHubU8TxOcXZa79jZ6r-71">
          <mxGeometry width="100" relative="1" as="geometry">
            <mxPoint x="180" y="46" as="sourcePoint" />
            <mxPoint x="280" y="46" as="targetPoint" />
            <Array as="points">
              <mxPoint x="100" y="46" />
              <mxPoint x="230" y="46" />
            </Array>
          </mxGeometry>
        </mxCell>
        <mxCell id="qTHubU8TxOcXZa79jZ6r-113" value="" style="edgeStyle=none;orthogonalLoop=1;jettySize=auto;html=1;rounded=0;exitX=0.996;exitY=0.833;exitDx=0;exitDy=0;exitPerimeter=0;" edge="1" parent="qTHubU8TxOcXZa79jZ6r-107">
          <mxGeometry width="100" relative="1" as="geometry">
            <mxPoint x="120" y="360" as="sourcePoint" />
            <mxPoint x="280" y="74" as="targetPoint" />
            <Array as="points">
              <mxPoint x="124" y="74" />
              <mxPoint x="254" y="74" />
            </Array>
          </mxGeometry>
        </mxCell>
        <mxCell id="qTHubU8TxOcXZa79jZ6r-115" value="" style="endArrow=classic;html=1;rounded=0;exitX=0.979;exitY=0.347;exitDx=0;exitDy=0;exitPerimeter=0;entryX=0.265;entryY=0.054;entryDx=0;entryDy=0;entryPerimeter=0;" edge="1" parent="qTHubU8TxOcXZa79jZ6r-107" target="qTHubU8TxOcXZa79jZ6r-57">
          <mxGeometry width="50" height="50" relative="1" as="geometry">
            <mxPoint x="380" y="66.5" as="sourcePoint" />
            <mxPoint x="500" y="66" as="targetPoint" />
            <Array as="points">
              <mxPoint x="430" y="67" />
              <mxPoint x="430" y="160" />
              <mxPoint x="260" y="160" />
              <mxPoint x="260" y="243" />
            </Array>
          </mxGeometry>
        </mxCell>
        <mxCell id="qTHubU8TxOcXZa79jZ6r-118" value="" style="endArrow=classic;html=1;rounded=0;" edge="1" parent="qTHubU8TxOcXZa79jZ6r-107">
          <mxGeometry width="50" height="50" relative="1" as="geometry">
            <mxPoint x="160" y="310" as="sourcePoint" />
            <mxPoint x="262.5" y="310" as="targetPoint" />
          </mxGeometry>
        </mxCell>
        <mxCell id="qTHubU8TxOcXZa79jZ6r-63" value="data_sample_tick" style="text;html=1;align=center;verticalAlign=middle;resizable=0;points=[];autosize=1;strokeColor=none;fillColor=none;" vertex="1" parent="qTHubU8TxOcXZa79jZ6r-107">
          <mxGeometry x="370" y="264" width="120" height="30" as="geometry" />
        </mxCell>
        <mxCell id="qTHubU8TxOcXZa79jZ6r-120" value="" style="endArrow=classic;html=1;rounded=0;entryX=0;entryY=0.5;entryDx=0;entryDy=0;exitX=-0.041;exitY=0.083;exitDx=0;exitDy=0;exitPerimeter=0;" edge="1" parent="qTHubU8TxOcXZa79jZ6r-107" source="qTHubU8TxOcXZa79jZ6r-64">
          <mxGeometry width="50" height="50" relative="1" as="geometry">
            <mxPoint x="390" y="310" as="sourcePoint" />
            <mxPoint x="572.5" y="310" as="targetPoint" />
          </mxGeometry>
        </mxCell>
        <mxCell id="qTHubU8TxOcXZa79jZ6r-81" value="rx" style="text;html=1;align=center;verticalAlign=middle;resizable=0;points=[];autosize=1;strokeColor=none;fillColor=none;" vertex="1" parent="qTHubU8TxOcXZa79jZ6r-107">
          <mxGeometry x="530" y="320" width="30" height="30" as="geometry" />
        </mxCell>
        <mxCell id="qTHubU8TxOcXZa79jZ6r-125" value="" style="endArrow=classic;html=1;rounded=0;" edge="1" parent="qTHubU8TxOcXZa79jZ6r-107">
          <mxGeometry width="50" height="50" relative="1" as="geometry">
            <mxPoint x="680" y="360" as="sourcePoint" />
            <mxPoint x="740" y="360" as="targetPoint" />
          </mxGeometry>
        </mxCell>
        <mxCell id="qTHubU8TxOcXZa79jZ6r-127" value="" style="endArrow=classic;html=1;rounded=0;exitX=1;exitY=1;exitDx=0;exitDy=0;" edge="1" parent="qTHubU8TxOcXZa79jZ6r-107" source="qTHubU8TxOcXZa79jZ6r-57">
          <mxGeometry width="50" height="50" relative="1" as="geometry">
            <mxPoint x="510" y="298" as="sourcePoint" />
            <mxPoint x="847" y="483" as="targetPoint" />
            <Array as="points">
              <mxPoint x="367" y="483" />
              <mxPoint x="510" y="483" />
            </Array>
          </mxGeometry>
        </mxCell>
        <mxCell id="qTHubU8TxOcXZa79jZ6r-117" value="tick_rx" style="text;html=1;align=center;verticalAlign=middle;resizable=0;points=[];autosize=1;strokeColor=none;fillColor=none;" vertex="1" parent="1">
          <mxGeometry x="740" y="198" width="60" height="30" as="geometry" />
        </mxCell>
        <mxCell id="qTHubU8TxOcXZa79jZ6r-119" value="rx" style="text;html=1;align=center;verticalAlign=middle;resizable=0;points=[];autosize=1;strokeColor=none;fillColor=none;" vertex="1" parent="1">
          <mxGeometry x="515" y="448" width="30" height="30" as="geometry" />
        </mxCell>
        <mxCell id="qTHubU8TxOcXZa79jZ6r-122" value="data_valid" style="text;html=1;align=center;verticalAlign=middle;resizable=0;points=[];autosize=1;strokeColor=none;fillColor=none;" vertex="1" parent="1">
          <mxGeometry x="740" y="448" width="80" height="30" as="geometry" />
        </mxCell>
        <mxCell id="qTHubU8TxOcXZa79jZ6r-123" value="" style="edgeStyle=none;orthogonalLoop=1;jettySize=auto;html=1;rounded=0;" edge="1" parent="1">
          <mxGeometry width="100" relative="1" as="geometry">
            <mxPoint x="520" y="470" as="sourcePoint" />
            <mxPoint x="940" y="490" as="targetPoint" />
            <Array as="points">
              <mxPoint x="500" y="470" />
              <mxPoint x="500" y="380" />
              <mxPoint x="850" y="380" />
              <mxPoint x="850" y="490" />
            </Array>
          </mxGeometry>
        </mxCell>
        <mxCell id="qTHubU8TxOcXZa79jZ6r-126" value="parity_bit" style="text;html=1;align=center;verticalAlign=middle;resizable=0;points=[];autosize=1;strokeColor=none;fillColor=none;" vertex="1" parent="1">
          <mxGeometry x="1035" y="488" width="70" height="30" as="geometry" />
        </mxCell>
        <mxCell id="qTHubU8TxOcXZa79jZ6r-128" value="frame_error" style="text;html=1;align=center;verticalAlign=middle;resizable=0;points=[];autosize=1;strokeColor=none;fillColor=none;" vertex="1" parent="1">
          <mxGeometry x="1095" y="618" width="90" height="30" as="geometry" />
        </mxCell>
        <mxCell id="qTHubU8TxOcXZa79jZ6r-130" value="wr_en" style="text;html=1;align=center;verticalAlign=middle;resizable=0;points=[];autosize=1;strokeColor=none;fillColor=none;" vertex="1" parent="1">
          <mxGeometry x="960" y="658" width="60" height="30" as="geometry" />
        </mxCell>
        <mxCell id="qTHubU8TxOcXZa79jZ6r-134" value="data_out" style="text;html=1;align=center;verticalAlign=middle;resizable=0;points=[];autosize=1;strokeColor=none;fillColor=none;" vertex="1" parent="1">
          <mxGeometry x="1065" y="558" width="70" height="30" as="geometry" />
        </mxCell>
      </root>
    </mxGraphModel>
  </diagram>
</mxfile>
